<?xml version="1.0" encoding="UTF-8" standalone="no"?>
<svg
   xmlns:dc="http://purl.org/dc/elements/1.1/"
   xmlns:cc="http://creativecommons.org/ns#"
   xmlns:rdf="http://www.w3.org/1999/02/22-rdf-syntax-ns#"
   xmlns:svg="http://www.w3.org/2000/svg"
   xmlns="http://www.w3.org/2000/svg"
   xmlns:sodipodi="http://sodipodi.sourceforge.net/DTD/sodipodi-0.dtd"
   xmlns:inkscape="http://www.inkscape.org/namespaces/inkscape"
   width="4.835495in"
   height="7.1954722in"
   version="1.1"
   id="svg128"
   sodipodi:docname="Hammer.svg"
   inkscape:version="0.92.4 (5da689c313, 2019-01-14)"
   inkscape:label="Hammer">
  <metadata
     id="metadata132">
    <rdf:RDF>
      <cc:Work
         rdf:about="">
        <dc:format>image/svg+xml</dc:format>
        <dc:type
           rdf:resource="http://purl.org/dc/dcmitype/StillImage" />
        <dc:title></dc:title>
      </cc:Work>
    </rdf:RDF>
  </metadata>
  <sodipodi:namedview
     pagecolor="#ffffff"
     bordercolor="#666666"
     borderopacity="1"
     objecttolerance="10"
     gridtolerance="10"
     guidetolerance="10"
     inkscape:pageopacity="0"
     inkscape:pageshadow="2"
     inkscape:window-width="1918"
     inkscape:window-height="2088"
     id="namedview130"
     showgrid="false"
     inkscape:zoom="0.84096523"
     inkscape:cx="173.14766"
     inkscape:cy="137.45683"
     inkscape:window-x="3833"
     inkscape:window-y="40"
     inkscape:window-maximized="0"
     inkscape:current-layer="svg128"
     units="in"
     fit-margin-top="0.5"
     fit-margin-bottom="0.5"
     fit-margin-left="0.5"
     fit-margin-right="0.5" />
  <desc
     id="desc2">C:\Users\Timothy\Desktop\CorporateHacks\Materials\Hammer - Handle.dxf - scale = 1.000000, origin = (0.000000, 0.000000), method = manual</desc>
  <defs
     id="defs16">
    <marker
       id="DistanceX"
       orient="auto"
       refX="0"
       refY="0"
       style="overflow:visible">
      <path
         d="M 3,-3 -3,3 M 0,-5 V 5"
         style="stroke:#000000;stroke-width:0.5"
         id="path4"
         inkscape:connector-curvature="0" />
    </marker>
    <pattern
       height="8"
       id="Hatch"
       patternUnits="userSpaceOnUse"
       width="8"
       x="0"
       y="0">
      <path
         d="M8 4 l-4,4"
         linecap="square"
         stroke="#000000"
         stroke-width="0.25"
         id="path7" />
      <path
         d="M6 2 l-4,4"
         linecap="square"
         stroke="#000000"
         stroke-width="0.25"
         id="path9" />
      <path
         d="M4 0 l-4,4"
         linecap="square"
         stroke="#000000"
         stroke-width="0.25"
         id="path11" />
    </pattern>
    <symbol
       id="*MODEL_SPACE" />
    <symbol
       id="*PAPER_SPACE" />
    <marker
       style="overflow:visible"
       refY="0"
       refX="0"
       orient="auto"
       id="DistanceX-5">
      <path
         id="path4656"
         style="stroke:#000000;stroke-width:0.5"
         d="M 3,-3 -3,3 M 0,-5 V 5"
         inkscape:connector-curvature="0" />
    </marker>
    <pattern
       y="0"
       x="0"
       width="8"
       patternUnits="userSpaceOnUse"
       id="Hatch-4"
       height="8">
      <path
         id="path4659"
         stroke-width="0.25"
         stroke="#000000"
         linecap="square"
         d="M8 4 l-4,4" />
      <path
         id="path4661"
         stroke-width="0.25"
         stroke="#000000"
         linecap="square"
         d="M6 2 l-4,4" />
      <path
         id="path4663"
         stroke-width="0.25"
         stroke="#000000"
         linecap="square"
         d="M4 0 l-4,4" />
    </pattern>
    <symbol
       id="*MODEL_SPACE-8" />
    <symbol
       id="*PAPER_SPACE-9" />
    <marker
       style="overflow:visible"
       refY="0"
       refX="0"
       orient="auto"
       id="DistanceX-8">
      <path
         id="path4889"
         style="stroke:#000000;stroke-width:0.5"
         d="M 3,-3 -3,3 M 0,-5 V 5"
         inkscape:connector-curvature="0" />
    </marker>
    <pattern
       y="0"
       x="0"
       width="8"
       patternUnits="userSpaceOnUse"
       id="Hatch-2"
       height="8">
      <path
         id="path4892"
         stroke-width="0.25"
         stroke="#000000"
         linecap="square"
         d="M8 4 l-4,4" />
      <path
         id="path4894"
         stroke-width="0.25"
         stroke="#000000"
         linecap="square"
         d="M6 2 l-4,4" />
      <path
         id="path4896"
         stroke-width="0.25"
         stroke="#000000"
         linecap="square"
         d="M4 0 l-4,4" />
    </pattern>
    <symbol
       id="*MODEL_SPACE-5" />
    <symbol
       id="*PAPER_SPACE-3" />
    <marker
       style="overflow:visible"
       refY="0"
       refX="0"
       orient="auto"
       id="DistanceX-87">
      <path
         id="path5083"
         style="stroke:#000000;stroke-width:0.5"
         d="M 3,-3 -3,3 M 0,-5 V 5"
         inkscape:connector-curvature="0" />
    </marker>
    <pattern
       y="0"
       x="0"
       width="8"
       patternUnits="userSpaceOnUse"
       id="Hatch-46"
       height="8">
      <path
         id="path5086"
         stroke-width="0.25"
         stroke="#000000"
         linecap="square"
         d="M8 4 l-4,4" />
      <path
         id="path5088"
         stroke-width="0.25"
         stroke="#000000"
         linecap="square"
         d="M6 2 l-4,4" />
      <path
         id="path5090"
         stroke-width="0.25"
         stroke="#000000"
         linecap="square"
         d="M4 0 l-4,4" />
    </pattern>
    <symbol
       id="*MODEL_SPACE-3" />
    <symbol
       id="*PAPER_SPACE-2" />
    <marker
       style="overflow:visible"
       refY="0"
       refX="0"
       orient="auto"
       id="DistanceX-9">
      <path
         id="path5271"
         style="stroke:#000000;stroke-width:0.5"
         d="M 3,-3 -3,3 M 0,-5 V 5"
         inkscape:connector-curvature="0" />
    </marker>
    <pattern
       y="0"
       x="0"
       width="8"
       patternUnits="userSpaceOnUse"
       id="Hatch-3"
       height="8">
      <path
         id="path5274"
         stroke-width="0.25"
         stroke="#000000"
         linecap="square"
         d="M8 4 l-4,4" />
      <path
         id="path5276"
         stroke-width="0.25"
         stroke="#000000"
         linecap="square"
         d="M6 2 l-4,4" />
      <path
         id="path5278"
         stroke-width="0.25"
         stroke="#000000"
         linecap="square"
         d="M4 0 l-4,4" />
    </pattern>
    <symbol
       id="*MODEL_SPACE-4" />
    <symbol
       id="*PAPER_SPACE-0" />
    <marker
       style="overflow:visible"
       refY="0"
       refX="0"
       orient="auto"
       id="DistanceX-3">
      <path
         id="path5465"
         style="stroke:#000000;stroke-width:0.5"
         d="M 3,-3 -3,3 M 0,-5 V 5"
         inkscape:connector-curvature="0" />
    </marker>
    <pattern
       y="0"
       x="0"
       width="8"
       patternUnits="userSpaceOnUse"
       id="Hatch-38"
       height="8">
      <path
         id="path5468"
         stroke-width="0.25"
         stroke="#000000"
         linecap="square"
         d="M8 4 l-4,4" />
      <path
         id="path5470"
         stroke-width="0.25"
         stroke="#000000"
         linecap="square"
         d="M6 2 l-4,4" />
      <path
         id="path5472"
         stroke-width="0.25"
         stroke="#000000"
         linecap="square"
         d="M4 0 l-4,4" />
    </pattern>
    <symbol
       id="*MODEL_SPACE-2" />
    <symbol
       id="*PAPER_SPACE-5" />
  </defs>
  <g
     id="g6565"
     transform="rotate(-14.5,-1078.5513,901.06957)">
    <g
       inkscape:label="g5681"
       transform="translate(395.77864,-396.78936)"
       id="g5681">
      <path
         sodipodi:nodetypes="cscccscccscccccc"
         d="m -33.595801,1075.2756 c -0.764717,8.0542 -2.502914,15.9861 -5.176561,23.622 -2.673655,7.6359 -4.411853,15.5678 -5.176562,23.6221 -8.593036,90.5052 -8.593036,181.6208 0,272.126 0.354781,3.7364 3.107173,6.8034 6.78357,7.559 12.228793,2.5132 24.680975,3.7796 37.165354,3.7796 12.484379,0 24.936561,-1.2664 37.165354,-3.7796 3.676397,-0.7556 6.428789,-3.8226 6.78357,-7.559 8.593036,-90.5052 8.593036,-181.6208 0,-272.126 -0.764709,-8.0543 -2.502907,-15.9862 -5.176562,-23.6221 -2.673647,-7.6359 -4.411844,-15.5678 -5.176561,-23.622 -3.079729,-32.4369 2.727103,-65.1003 16.7979,-94.4882 L 37.165354,839.05512 H -37.165354 L -50.393701,980.7874 c 14.070797,29.3879 19.877629,62.0513 16.7979,94.4882 z"
         style="fill:#795a00;fill-opacity:1;stroke:#000000;stroke-linejoin:round"
         id="path78"
         inkscape:connector-curvature="0" />
    </g>
    <g
       transform="translate(584.37518,-470.71482)"
       id="g6539">
      <g
         id="g5868"
         style="fill:none;fill-opacity:1;stroke:#000000;stroke-linejoin:round;stroke-opacity:1;paint-order:normal"
         transform="translate(-188.53278,72.502816)">
        <path
           inkscape:connector-curvature="0"
           d="m -39.871656,971.60603 c -3.250434,-0.0878 -6.460323,-0.74467 -9.483984,-1.94071 -0.69054,3.6671 -1.038061,7.39053 -1.038061,11.12208 -10e-7,9.09596 7.373731,16.46969 16.46969,16.46969"
           style="fill:#dd5228;fill-opacity:1;stroke:#000000;stroke-linejoin:round;stroke-opacity:1;paint-order:normal"
           id="path5157"
           sodipodi:nodetypes="ccsc" />
        <path
           inkscape:connector-curvature="0"
           d="m 33.924011,997.25709 c 9.095959,0 16.469691,-7.37373 16.46969,-16.46969 0,-3.73155 -0.347521,-7.45498 -1.038061,-11.12208 -3.023661,1.19604 -6.23355,1.85288 -9.483984,1.94071"
           style="fill:#dd5228;fill-opacity:1;stroke:#000000;stroke-linejoin:round;stroke-opacity:1;paint-order:normal"
           id="path5347"
           sodipodi:nodetypes="cscc" />
        <path
           inkscape:connector-curvature="0"
           d="m -162.36629,1177.4034 c -23.31819,17.3278 -48.8072,31.5242 -75.81561,42.2264 22.93375,30.8621 53.58726,55.1438 88.87954,70.4043 106.677266,-45.4201 172.458154,-153.8649 163.449305,-269.4584 0.711946,0.5835 1.74075,0.5691 2.436134,-0.034 14.245369,-12.3521 22.687111,-30.09058 23.288577,-48.93587 0.03643,-1.1414 -0.940041,-2.05406 -2.07638,-1.94071 -25.134479,2.50724 -50.456073,2.50724 -75.590552,0 -1.136339,-0.11335 -2.112806,0.79931 -2.07638,1.94071 0.601466,18.84529 9.043208,36.58377 23.288577,48.93597 0.695384,0.6031 1.724188,0.6175 2.436134,0.034 -6.28692,80.6677 -68.034502,146.0015 -148.219345,156.8276 z"
           style="fill:#dd5228;fill-opacity:1;stroke:#000000;stroke-linejoin:round;stroke-opacity:1;paint-order:normal"
           id="path5541"
           sodipodi:nodetypes="cccccscccccc" />
        <path
           inkscape:connector-curvature="0"
           d="m 14.146945,1020.5757 a 22.313675,22.313675 0 0 0 -28.29389,0"
           style="opacity:1;fill:none;fill-opacity:1;stroke:#000000;stroke-linejoin:round;stroke-opacity:1;paint-order:normal"
           id="path4975" />
      </g>
    </g>
    <g
       inkscape:label="g4873"
       style="fill:none;fill-opacity:1;stroke:#000000;stroke-linecap:round;stroke-linejoin:round;stroke-opacity:1"
       transform="translate(396.53995,-399.26762)"
       id="g4873">
      <path
         sodipodi:nodetypes="scccccccssccsssccssssscs"
         inkscape:connector-curvature="0"
         d="m -227.48888,978.91123 c 32.53924,-54.38902 82.23526,-96.41834 141.271336,-119.47716 15.295848,-5.97438 31.57271,-9.04037 47.993922,-9.04037 h 91.712153 c 3.131063,0 5.669291,2.53823 5.669292,5.66929 v 10.51097 c 16.211805,17.8011 44.221397,17.8011 60.433197,0 v -21.84955 c 0,-3.13106 2.53823,-5.66929 5.66929,-5.66929 h 20.3835 c 2.6624,0 4.96612,1.85263 5.53729,4.45304 9.61043,43.75389 9.61043,89.07231 0,132.8262 -0.57117,2.60041 -2.87489,4.45304 -5.53729,4.45304 h -20.3835 c -3.13106,0 -5.66929,-2.53823 -5.66929,-5.66929 v -33.18814 c -16.2118,-17.8011 -44.221392,-17.8011 -60.433197,0 v 21.84956 c -10e-7,3.13106 -2.538229,5.66929 -5.669292,5.66929 H -54.085773 c -2.896647,0 -5.538561,-1.65531 -6.80205,-4.26187 -6.419729,-13.24383 -20.438967,-21.05653 -35.079312,-19.54916 -43.212735,4.44919 -84.690495,19.36106 -120.844155,43.44526 -6.70567,4.46705 -14.81424,-3.25744 -10.67759,-10.17182 z"
         style="fill:#a5a5a5;fill-opacity:1;stroke:#000000;stroke-linecap:round;stroke-linejoin:round;stroke-opacity:1"
         id="path4732" />
    </g>
  </g>
</svg>
